<svg preserveAspectRatio="none" overflow="visible" style="display: block;" width="110.169" height="84.6168" viewBox="0 0 110.169 84.6168" fill="none" xmlns="http://www.w3.org/2000/svg">
<path id="Vector 3" d="M65.392 37.9242C65.0302 34.4016 66.1362 31.583 69.66 31.0843C73.1839 30.5856 75.0419 34.2892 74.9052 37.7881" stroke="#574B0A" stroke-width="2" stroke-linecap="round"/>
<path id="Vector 2" d="M43.8344 38.0785C43.4725 34.5559 44.5786 31.7373 48.1024 31.2386C51.6263 30.7399 53.4843 34.4435 53.3476 37.9424" stroke="#574B0A" stroke-width="2" stroke-linecap="round"/>
<path id="Vector_2" d="M59.3436 44.4944C60.5572 44.4944 61.541 43.5159 61.541 42.309C61.541 41.102 60.5572 40.1235 59.3436 40.1235C58.13 40.1235 57.1461 41.102 57.1461 42.309C57.1461 43.5159 58.13 44.4944 59.3436 44.4944Z" fill="#574B0A"/>
<path id="Vector 6" d="M46 52.9374L73.2949 52.9502" stroke="#574B0A" stroke-width="2" stroke-linecap="round"/>
</svg>
